<svg width="163" height="55" viewBox="0 0 163 55" fill="none" xmlns="http://www.w3.org/2000/svg">
<g filter="url(#filter0_d_4_10)">
<mask id="path-1-outside-1_4_10" maskUnits="userSpaceOnUse" x="3.32158" y="0" width="156" height="47" fill="black">
<rect fill="white" x="3.32158" width="156" height="47"/>
<path d="M7.36158 44V9.98H6.22158L7.06158 2H18.0416C21.1216 2 23.3216 2.68 24.6416 4.04C26.0016 5.36 26.6816 7.54 26.6816 10.58V24.26C26.6816 27.34 26.0216 29.54 24.7016 30.86L28.4216 44H20.2616L17.1416 32.84H15.5216V44H7.36158ZM18.2216 9.98H15.5216V24.86H18.2216C18.4216 24.86 18.5216 24.76 18.5216 24.56V10.28C18.5216 10.08 18.4216 9.98 18.2216 9.98ZM29.8686 44V9.98H28.7286L29.5686 2H46.7286L46.2486 9.98H38.0286V18.98H45.4086L44.9286 26.96H38.0286V36.02H46.7286L46.2486 44H29.8686ZM50.2592 44V9.98H49.1192L49.9592 2H60.9392C64.0192 2 66.2192 2.68 67.5392 4.04C68.8992 5.36 69.5792 7.54 69.5792 10.58V24.26C69.5792 27.3 68.8992 29.5 67.5392 30.86C66.2192 32.18 64.0192 32.84 60.9392 32.84H58.4192V44H50.2592ZM61.1192 9.98H58.4192V24.86H61.1192C61.3192 24.86 61.4192 24.76 61.4192 24.56V10.28C61.4192 10.08 61.3192 9.98 61.1192 9.98Z"/>
<path d="M73.1108 44V9.98H71.9708L72.8108 2H89.9708L89.4908 9.98H81.2708V18.98H88.6508L88.1708 26.96H81.2708V44H73.1108ZM113.428 35.66C113.428 38.7 112.748 40.9 111.388 42.26C110.068 43.58 107.868 44.24 104.788 44.24H101.548C98.4685 44.24 96.2485 43.58 94.8885 42.26C93.5685 40.9 92.9085 38.7 92.9085 35.66V9.98H91.7685L92.6085 2H101.068V35.96C101.068 36.16 101.168 36.26 101.368 36.26H104.968C105.168 36.26 105.268 36.16 105.268 35.96V2H113.428V35.66ZM116.646 44V9.98H115.506L116.346 2H133.506L133.026 9.98H124.806V18.98H132.186L131.706 26.96H124.806V36.02H133.506L133.026 44H116.646ZM137.037 44.06V10.04H135.897L136.737 2.06H145.197V36.02H156.657L156.177 44H145.197V44.06H137.037Z"/>
</mask>
<path d="M7.36158 44V9.98H6.22158L7.06158 2H18.0416C21.1216 2 23.3216 2.68 24.6416 4.04C26.0016 5.36 26.6816 7.54 26.6816 10.58V24.26C26.6816 27.34 26.0216 29.54 24.7016 30.86L28.4216 44H20.2616L17.1416 32.84H15.5216V44H7.36158ZM18.2216 9.98H15.5216V24.86H18.2216C18.4216 24.86 18.5216 24.76 18.5216 24.56V10.28C18.5216 10.08 18.4216 9.98 18.2216 9.98ZM29.8686 44V9.98H28.7286L29.5686 2H46.7286L46.2486 9.98H38.0286V18.98H45.4086L44.9286 26.96H38.0286V36.02H46.7286L46.2486 44H29.8686ZM50.2592 44V9.98H49.1192L49.9592 2H60.9392C64.0192 2 66.2192 2.68 67.5392 4.04C68.8992 5.36 69.5792 7.54 69.5792 10.58V24.26C69.5792 27.3 68.8992 29.5 67.5392 30.86C66.2192 32.18 64.0192 32.84 60.9392 32.84H58.4192V44H50.2592ZM61.1192 9.98H58.4192V24.86H61.1192C61.3192 24.86 61.4192 24.76 61.4192 24.56V10.28C61.4192 10.08 61.3192 9.98 61.1192 9.98Z" fill="#C98C24"/>
<path d="M73.1108 44V9.98H71.9708L72.8108 2H89.9708L89.4908 9.98H81.2708V18.98H88.6508L88.1708 26.96H81.2708V44H73.1108ZM113.428 35.66C113.428 38.7 112.748 40.9 111.388 42.26C110.068 43.58 107.868 44.24 104.788 44.24H101.548C98.4685 44.24 96.2485 43.58 94.8885 42.26C93.5685 40.9 92.9085 38.7 92.9085 35.66V9.98H91.7685L92.6085 2H101.068V35.96C101.068 36.16 101.168 36.26 101.368 36.26H104.968C105.168 36.26 105.268 36.16 105.268 35.96V2H113.428V35.66ZM116.646 44V9.98H115.506L116.346 2H133.506L133.026 9.98H124.806V18.98H132.186L131.706 26.96H124.806V36.02H133.506L133.026 44H116.646ZM137.037 44.06V10.04H135.897L136.737 2.06H145.197V36.02H156.657L156.177 44H145.197V44.06H137.037Z" fill="#0D2E64"/>
<path d="M7.36158 44H5.36158V46H7.36158V44ZM7.36158 9.98H9.36158V7.98H7.36158V9.98ZM6.22158 9.98L4.23256 9.77063L4 11.98H6.22158V9.98ZM7.06158 2V-2.86102e-06H5.26105L5.07256 1.79063L7.06158 2ZM24.6416 4.04L23.2064 5.43295L23.2272 5.45437L23.2486 5.47516L24.6416 4.04ZM24.7016 30.86L23.2874 29.4458L22.4575 30.2756L22.7772 31.4048L24.7016 30.86ZM28.4216 44V46H31.0664L30.3459 43.4552L28.4216 44ZM20.2616 44L18.3354 44.5385L18.744 46H20.2616V44ZM17.1416 32.84L19.0677 32.3015L18.6591 30.84H17.1416V32.84ZM15.5216 32.84V30.84H13.5216V32.84H15.5216ZM15.5216 44V46H17.5216V44H15.5216ZM15.5216 9.98V7.98H13.5216V9.98H15.5216ZM15.5216 24.86H13.5216V26.86H15.5216V24.86ZM7.36158 44H9.36158V9.98H7.36158H5.36158V44H7.36158ZM7.36158 9.98V7.98H6.22158V9.98V11.98H7.36158V9.98ZM6.22158 9.98L8.21059 10.1894L9.05059 2.20937L7.06158 2L5.07256 1.79063L4.23256 9.77063L6.22158 9.98ZM7.06158 2V4H18.0416V2V-2.86102e-06H7.06158V2ZM18.0416 2V4C20.9054 4 22.4412 4.64449 23.2064 5.43295L24.6416 4.04L26.0767 2.64705C24.202 0.715501 21.3377 -2.86102e-06 18.0416 -2.86102e-06V2ZM24.6416 4.04L23.2486 5.47516C24.0412 6.24439 24.6816 7.76536 24.6816 10.58H26.6816H28.6816C28.6816 7.31464 27.962 4.4756 26.0345 2.60484L24.6416 4.04ZM26.6816 10.58H24.6816V24.26H26.6816H28.6816V10.58H26.6816ZM26.6816 24.26H24.6816C24.6816 27.137 24.0512 28.6819 23.2874 29.4458L24.7016 30.86L26.1158 32.2742C27.9919 30.3981 28.6816 27.543 28.6816 24.26H26.6816ZM24.7016 30.86L22.7772 31.4048L26.4972 44.5448L28.4216 44L30.3459 43.4552L26.6259 30.3152L24.7016 30.86ZM28.4216 44V42H20.2616V44V46H28.4216V44ZM20.2616 44L22.1877 43.4615L19.0677 32.3015L17.1416 32.84L15.2154 33.3785L18.3354 44.5385L20.2616 44ZM17.1416 32.84V30.84H15.5216V32.84V34.84H17.1416V32.84ZM15.5216 32.84H13.5216V44H15.5216H17.5216V32.84H15.5216ZM15.5216 44V42H7.36158V44V46H15.5216V44ZM18.2216 9.98V7.98H15.5216V9.98V11.98H18.2216V9.98ZM15.5216 9.98H13.5216V24.86H15.5216H17.5216V9.98H15.5216ZM15.5216 24.86V26.86H18.2216V24.86V22.86H15.5216V24.86ZM18.2216 24.86V26.86C18.6299 26.86 19.3034 26.7566 19.8608 26.1992C20.4181 25.6419 20.5216 24.9683 20.5216 24.56H18.5216H16.5216C16.5216 24.3517 16.575 23.8281 17.0324 23.3708C17.4897 22.9134 18.0133 22.86 18.2216 22.86V24.86ZM18.5216 24.56H20.5216V10.28H18.5216H16.5216V24.56H18.5216ZM18.5216 10.28H20.5216C20.5216 9.87171 20.4181 9.19814 19.8608 8.64078C19.3034 8.08342 18.6299 7.98 18.2216 7.98V9.98V11.98C18.0133 11.98 17.4897 11.9266 17.0324 11.4692C16.575 11.0119 16.5216 10.4883 16.5216 10.28H18.5216ZM29.8686 44H27.8686V46H29.8686V44ZM29.8686 9.98H31.8686V7.98H29.8686V9.98ZM28.7286 9.98L26.7396 9.77063L26.507 11.98H28.7286V9.98ZM29.5686 2V-2.86102e-06H27.7681L27.5796 1.79063L29.5686 2ZM46.7286 2L48.725 2.12008L48.8525 -2.86102e-06H46.7286V2ZM46.2486 9.98V11.98H48.1319L48.245 10.1001L46.2486 9.98ZM38.0286 9.98V7.98H36.0286V9.98H38.0286ZM38.0286 18.98H36.0286V20.98H38.0286V18.98ZM45.4086 18.98L47.405 19.1001L47.5325 16.98H45.4086V18.98ZM44.9286 26.96V28.96H46.8119L46.925 27.0801L44.9286 26.96ZM38.0286 26.96V24.96H36.0286V26.96H38.0286ZM38.0286 36.02H36.0286V38.02H38.0286V36.02ZM46.7286 36.02L48.725 36.1401L48.8525 34.02H46.7286V36.02ZM46.2486 44V46H48.1319L48.245 44.1201L46.2486 44ZM29.8686 44H31.8686V9.98H29.8686H27.8686V44H29.8686ZM29.8686 9.98V7.98H28.7286V9.98V11.98H29.8686V9.98ZM28.7286 9.98L30.7176 10.1894L31.5576 2.20937L29.5686 2L27.5796 1.79063L26.7396 9.77063L28.7286 9.98ZM29.5686 2V4H46.7286V2V-2.86102e-06H29.5686V2ZM46.7286 2L44.7322 1.87991L44.2522 9.85991L46.2486 9.98L48.245 10.1001L48.725 2.12008L46.7286 2ZM46.2486 9.98V7.98H38.0286V9.98V11.98H46.2486V9.98ZM38.0286 9.98H36.0286V18.98H38.0286H40.0286V9.98H38.0286ZM38.0286 18.98V20.98H45.4086V18.98V16.98H38.0286V18.98ZM45.4086 18.98L43.4122 18.8599L42.9322 26.8399L44.9286 26.96L46.925 27.0801L47.405 19.1001L45.4086 18.98ZM44.9286 26.96V24.96H38.0286V26.96V28.96H44.9286V26.96ZM38.0286 26.96H36.0286V36.02H38.0286H40.0286V26.96H38.0286ZM38.0286 36.02V38.02H46.7286V36.02V34.02H38.0286V36.02ZM46.7286 36.02L44.7322 35.8999L44.2522 43.8799L46.2486 44L48.245 44.1201L48.725 36.1401L46.7286 36.02ZM46.2486 44V42H29.8686V44V46H46.2486V44ZM50.2592 44H48.2592V46H50.2592V44ZM50.2592 9.98H52.2592V7.98H50.2592V9.98ZM49.1192 9.98L47.1302 9.77063L46.8977 11.98H49.1192V9.98ZM49.9592 2V-2.86102e-06H48.1587L47.9702 1.79063L49.9592 2ZM67.5392 4.04L66.1041 5.43295L66.1249 5.45437L66.1463 5.47516L67.5392 4.04ZM67.5392 30.86L68.9534 32.2742L68.9534 32.2742L67.5392 30.86ZM58.4192 32.84V30.84H56.4192V32.84H58.4192ZM58.4192 44V46H60.4192V44H58.4192ZM58.4192 9.98V7.98H56.4192V9.98H58.4192ZM58.4192 24.86H56.4192V26.86H58.4192V24.86ZM50.2592 44H52.2592V9.98H50.2592H48.2592V44H50.2592ZM50.2592 9.98V7.98H49.1192V9.98V11.98H50.2592V9.98ZM49.1192 9.98L51.1082 10.1894L51.9482 2.20937L49.9592 2L47.9702 1.79063L47.1302 9.77063L49.1192 9.98ZM49.9592 2V4H60.9392V2V-2.86102e-06H49.9592V2ZM60.9392 2V4C63.8031 4 65.3388 4.64449 66.1041 5.43295L67.5392 4.04L68.9744 2.64705C67.0997 0.715501 64.2354 -2.86102e-06 60.9392 -2.86102e-06V2ZM67.5392 4.04L66.1463 5.47516C66.9388 6.24439 67.5792 7.76536 67.5792 10.58H69.5792H71.5792C71.5792 7.31464 70.8596 4.4756 68.9322 2.60484L67.5392 4.04ZM69.5792 10.58H67.5792V24.26H69.5792H71.5792V10.58H69.5792ZM69.5792 24.26H67.5792C67.5792 27.0675 66.9418 28.629 66.125 29.4458L67.5392 30.86L68.9534 32.2742C70.8566 30.371 71.5792 27.5325 71.5792 24.26H69.5792ZM67.5392 30.86L66.125 29.4458C65.3611 30.2097 63.8162 30.84 60.9392 30.84V32.84V34.84C64.2223 34.84 67.0773 34.1503 68.9534 32.2742L67.5392 30.86ZM60.9392 32.84V30.84H58.4192V32.84V34.84H60.9392V32.84ZM58.4192 32.84H56.4192V44H58.4192H60.4192V32.84H58.4192ZM58.4192 44V42H50.2592V44V46H58.4192V44ZM61.1192 9.98V7.98H58.4192V9.98V11.98H61.1192V9.98ZM58.4192 9.98H56.4192V24.86H58.4192H60.4192V9.98H58.4192ZM58.4192 24.86V26.86H61.1192V24.86V22.86H58.4192V24.86ZM61.1192 24.86V26.86C61.5275 26.86 62.2011 26.7566 62.7584 26.1992C63.3158 25.6419 63.4192 24.9683 63.4192 24.56H61.4192H59.4192C59.4192 24.3517 59.4727 23.8281 59.93 23.3708C60.3874 22.9134 60.9109 22.86 61.1192 22.86V24.86ZM61.4192 24.56H63.4192V10.28H61.4192H59.4192V24.56H61.4192ZM61.4192 10.28H63.4192C63.4192 9.87171 63.3158 9.19814 62.7584 8.64078C62.2011 8.08343 61.5275 7.98 61.1192 7.98V9.98V11.98C60.9109 11.98 60.3874 11.9266 59.93 11.4692C59.4727 11.0119 59.4192 10.4883 59.4192 10.28H61.4192ZM73.1108 44H71.1108V46H73.1108V44ZM73.1108 9.98H75.1108V7.98H73.1108V9.98ZM71.9708 9.98L69.9818 9.77063L69.7492 11.98H71.9708V9.98ZM72.8108 2V-2.86102e-06H71.0103L70.8218 1.79063L72.8108 2ZM89.9708 2L91.9672 2.12008L92.0947 -2.86102e-06H89.9708V2ZM89.4908 9.98V11.98H91.3741L91.4872 10.1001L89.4908 9.98ZM81.2708 9.98V7.98H79.2708V9.98H81.2708ZM81.2708 18.98H79.2708V20.98H81.2708V18.98ZM88.6508 18.98L90.6472 19.1001L90.7747 16.98H88.6508V18.98ZM88.1708 26.96V28.96H90.0541L90.1672 27.0801L88.1708 26.96ZM81.2708 26.96V24.96H79.2708V26.96H81.2708ZM81.2708 44V46H83.2708V44H81.2708ZM73.1108 44H75.1108V9.98H73.1108H71.1108V44H73.1108ZM73.1108 9.98V7.98H71.9708V9.98V11.98H73.1108V9.98ZM71.9708 9.98L73.9598 10.1894L74.7998 2.20937L72.8108 2L70.8218 1.79063L69.9818 9.77063L71.9708 9.98ZM72.8108 2V4H89.9708V2V-2.86102e-06H72.8108V2ZM89.9708 2L87.9744 1.87991L87.4944 9.85991L89.4908 9.98L91.4872 10.1001L91.9672 2.12008L89.9708 2ZM89.4908 9.98V7.98H81.2708V9.98V11.98H89.4908V9.98ZM81.2708 9.98H79.2708V18.98H81.2708H83.2708V9.98H81.2708ZM81.2708 18.98V20.98H88.6508V18.98V16.98H81.2708V18.98ZM88.6508 18.98L86.6544 18.8599L86.1744 26.8399L88.1708 26.96L90.1672 27.0801L90.6472 19.1001L88.6508 18.98ZM88.1708 26.96V24.96H81.2708V26.96V28.96H88.1708V26.96ZM81.2708 26.96H79.2708V44H81.2708H83.2708V26.96H81.2708ZM81.2708 44V42H73.1108V44V46H81.2708V44ZM111.388 42.26L109.974 40.8458L109.974 40.8458L111.388 42.26ZM94.8885 42.26L93.4533 43.653L93.4741 43.6744L93.4955 43.6952L94.8885 42.26ZM92.9085 9.98H94.9085V7.98H92.9085V9.98ZM91.7685 9.98L89.7794 9.77063L89.5469 11.98H91.7685V9.98ZM92.6085 2V-2.86102e-06H90.8079L90.6194 1.79063L92.6085 2ZM101.068 2H103.068V-2.86102e-06H101.068V2ZM105.268 2V-2.86102e-06H103.268V2H105.268ZM113.428 2H115.428V-2.86102e-06H113.428V2ZM113.428 35.66H111.428C111.428 38.4675 110.791 40.029 109.974 40.8458L111.388 42.26L112.803 43.6742C114.706 41.771 115.428 38.9325 115.428 35.66H113.428ZM111.388 42.26L109.974 40.8458C109.21 41.6097 107.665 42.24 104.788 42.24V44.24V46.24C108.071 46.24 110.927 45.5503 112.803 43.6742L111.388 42.26ZM104.788 44.24V42.24H101.548V44.24V46.24H104.788V44.24ZM101.548 44.24V42.24C98.6791 42.24 97.0933 41.6129 96.2814 40.8248L94.8885 42.26L93.4955 43.6952C95.4036 45.5471 98.2578 46.24 101.548 46.24V44.24ZM94.8885 42.26L96.3236 40.867C95.5318 40.0512 94.9085 38.4805 94.9085 35.66H92.9085H90.9085C90.9085 38.9195 91.6051 41.7488 93.4533 43.653L94.8885 42.26ZM92.9085 35.66H94.9085V9.98H92.9085H90.9085V35.66H92.9085ZM92.9085 9.98V7.98H91.7685V9.98V11.98H92.9085V9.98ZM91.7685 9.98L93.7575 10.1894L94.5975 2.20937L92.6085 2L90.6194 1.79063L89.7794 9.77063L91.7685 9.98ZM92.6085 2V4H101.068V2V-2.86102e-06H92.6085V2ZM101.068 2H99.0685V35.96H101.068H103.068V2H101.068ZM101.068 35.96H99.0685C99.0685 36.3683 99.1719 37.0419 99.7292 37.5992C100.287 38.1566 100.96 38.26 101.368 38.26V36.26V34.26C101.577 34.26 102.1 34.3134 102.558 34.7708C103.015 35.2281 103.068 35.7517 103.068 35.96H101.068ZM101.368 36.26V38.26H104.968V36.26V34.26H101.368V36.26ZM104.968 36.26V38.26C105.377 38.26 106.05 38.1566 106.608 37.5992C107.165 37.0419 107.268 36.3683 107.268 35.96H105.268H103.268C103.268 35.7517 103.322 35.2281 103.779 34.7708C104.237 34.3134 104.76 34.26 104.968 34.26V36.26ZM105.268 35.96H107.268V2H105.268H103.268V35.96H105.268ZM105.268 2V4H113.428V2V-2.86102e-06H105.268V2ZM113.428 2H111.428V35.66H113.428H115.428V2H113.428ZM116.646 44H114.646V46H116.646V44ZM116.646 9.98H118.646V7.98H116.646V9.98ZM115.506 9.98L113.517 9.77063L113.284 11.98H115.506V9.98ZM116.346 2V-2.86102e-06H114.545L114.357 1.79063L116.346 2ZM133.506 2L135.502 2.12008L135.63 -2.86102e-06H133.506V2ZM133.026 9.98V11.98H134.909L135.022 10.1001L133.026 9.98ZM124.806 9.98V7.98H122.806V9.98H124.806ZM124.806 18.98H122.806V20.98H124.806V18.98ZM132.186 18.98L134.182 19.1001L134.31 16.98H132.186V18.98ZM131.706 26.96V28.96H133.589L133.702 27.0801L131.706 26.96ZM124.806 26.96V24.96H122.806V26.96H124.806ZM124.806 36.02H122.806V38.02H124.806V36.02ZM133.506 36.02L135.502 36.1401L135.63 34.02H133.506V36.02ZM133.026 44V46H134.909L135.022 44.1201L133.026 44ZM116.646 44H118.646V9.98H116.646H114.646V44H116.646ZM116.646 9.98V7.98H115.506V9.98V11.98H116.646V9.98ZM115.506 9.98L117.495 10.1894L118.335 2.20937L116.346 2L114.357 1.79063L113.517 9.77063L115.506 9.98ZM116.346 2V4H133.506V2V-2.86102e-06H116.346V2ZM133.506 2L131.51 1.87991L131.03 9.85991L133.026 9.98L135.022 10.1001L135.502 2.12008L133.506 2ZM133.026 9.98V7.98H124.806V9.98V11.98H133.026V9.98ZM124.806 9.98H122.806V18.98H124.806H126.806V9.98H124.806ZM124.806 18.98V20.98H132.186V18.98V16.98H124.806V18.98ZM132.186 18.98L130.19 18.8599L129.71 26.8399L131.706 26.96L133.702 27.0801L134.182 19.1001L132.186 18.98ZM131.706 26.96V24.96H124.806V26.96V28.96H131.706V26.96ZM124.806 26.96H122.806V36.02H124.806H126.806V26.96H124.806ZM124.806 36.02V38.02H133.506V36.02V34.02H124.806V36.02ZM133.506 36.02L131.51 35.8999L131.03 43.8799L133.026 44L135.022 44.1201L135.502 36.1401L133.506 36.02ZM133.026 44V42H116.646V44V46H133.026V44ZM137.037 44.06H135.037V46.06H137.037V44.06ZM137.037 10.04H139.037V8.04H137.037V10.04ZM135.897 10.04L133.908 9.83063L133.675 12.04H135.897V10.04ZM136.737 2.06V0.0599964H134.936L134.748 1.85063L136.737 2.06ZM145.197 2.06H147.197V0.0599964H145.197V2.06ZM145.197 36.02H143.197V38.02H145.197V36.02ZM156.657 36.02L158.653 36.1401L158.78 34.02H156.657V36.02ZM156.177 44V46H158.06L158.173 44.1201L156.177 44ZM145.197 44V42H143.197V44H145.197ZM145.197 44.06V46.06H147.197V44.06H145.197ZM137.037 44.06H139.037V10.04H137.037H135.037V44.06H137.037ZM137.037 10.04V8.04H135.897V10.04V12.04H137.037V10.04ZM135.897 10.04L137.886 10.2494L138.726 2.26937L136.737 2.06L134.748 1.85063L133.908 9.83063L135.897 10.04ZM136.737 2.06V4.06H145.197V2.06V0.0599964H136.737V2.06ZM145.197 2.06H143.197V36.02H145.197H147.197V2.06H145.197ZM145.197 36.02V38.02H156.657V36.02V34.02H145.197V36.02ZM156.657 36.02L154.66 35.8999L154.18 43.8799L156.177 44L158.173 44.1201L158.653 36.1401L156.657 36.02ZM156.177 44V42H145.197V44V46H156.177V44ZM145.197 44H143.197V44.06H145.197H147.197V44H145.197ZM145.197 44.06V42.06H137.037V44.06V46.06H145.197V44.06Z" fill="white" mask="url(#path-1-outside-1_4_10)"/>
</g>
<defs>
<filter id="filter0_d_4_10" x="-3.8147e-06" y="0" width="162.781" height="54.24" filterUnits="userSpaceOnUse" color-interpolation-filters="sRGB">
<feFlood flood-opacity="0" result="BackgroundImageFix"/>
<feColorMatrix in="SourceAlpha" type="matrix" values="0 0 0 0 0 0 0 0 0 0 0 0 0 0 0 0 0 0 127 0" result="hardAlpha"/>
<feOffset dy="4"/>
<feGaussianBlur stdDeviation="2"/>
<feComposite in2="hardAlpha" operator="out"/>
<feColorMatrix type="matrix" values="0 0 0 0 0 0 0 0 0 0 0 0 0 0 0 0 0 0 0.25 0"/>
<feBlend mode="normal" in2="BackgroundImageFix" result="effect1_dropShadow_4_10"/>
<feBlend mode="normal" in="SourceGraphic" in2="effect1_dropShadow_4_10" result="shape"/>
</filter>
</defs>
</svg>
